<svg width="120" height="35" viewBox="0 0 120 35" fill="none" xmlns="http://www.w3.org/2000/svg">
<path d="M85.425 1.00107V33H80.8505V5.57554H75.3612V1.00107H85.425ZM117.893 28.4255C117.893 29.0503 117.774 29.6454 117.535 30.2107C117.297 30.7611 116.97 31.2446 116.554 31.6611C116.137 32.0777 115.646 32.4049 115.081 32.643C114.53 32.881 113.943 33 113.318 33H98.7021C98.0773 33 97.4822 32.881 96.9169 32.643C96.3665 32.4049 95.883 32.0777 95.4665 31.6611C95.05 31.2446 94.7227 30.7611 94.4847 30.2107C94.2466 29.6454 94.1276 29.0503 94.1276 28.4255V24.3197H98.7021V28.4255H113.318V19.2989H98.7021C98.0773 19.2989 97.4822 19.1799 96.9169 18.9419C96.3665 18.689 95.883 18.3617 95.4665 17.9601C95.05 17.5435 94.7227 17.06 94.4847 16.5096C94.2466 15.9443 94.1276 15.3493 94.1276 14.7245V5.57554C94.1276 4.95073 94.2466 4.36312 94.4847 3.81269C94.7227 3.2474 95.05 2.76392 95.4665 2.36226C95.883 1.94572 96.3665 1.61844 96.9169 1.38042C97.4822 1.12752 98.0773 1.00107 98.7021 1.00107H113.318C113.943 1.00107 114.53 1.12752 115.081 1.38042C115.646 1.61844 116.137 1.94572 116.554 2.36226C116.97 2.76392 117.297 3.2474 117.535 3.81269C117.774 4.36312 117.893 4.95073 117.893 5.57554V28.4255ZM113.318 14.7245V5.57554H98.7021V14.7245H113.318Z" fill="white"/>
<path d="M1.44678 22.4971H9.84766V23.9985H6.39795V33H4.89648V23.9985H1.44678V22.4971ZM19.9478 26.2471C19.9478 27.7119 19.3228 28.5469 18.0728 28.752L20.0503 33H18.3877L16.4395 28.8032H13.1509V33H11.6494V22.4971H17.3989C19.0981 22.4971 19.9478 23.3491 19.9478 25.0532V26.2471ZM13.1509 27.3018H17.3184C17.7188 27.3018 18.0068 27.2139 18.1826 27.0381C18.3584 26.8623 18.4463 26.5742 18.4463 26.1738V25.1265C18.4463 24.7261 18.3584 24.438 18.1826 24.2622C18.0068 24.0864 17.7188 23.9985 17.3184 23.9985H13.1509V27.3018ZM27.1108 22.4971L31.1611 33H29.6597L28.7295 30.583H23.9907L23.0605 33H21.5591L25.6094 22.4971H27.1108ZM24.562 29.0815H28.1509L26.3638 24.4526L24.562 29.0815ZM32.9629 23.9985C32.9629 23.7935 33.002 23.6006 33.0801 23.4199C33.1582 23.2344 33.2656 23.0757 33.4023 22.9438C33.5391 22.8071 33.6978 22.6997 33.8784 22.6216C34.064 22.5386 34.2593 22.4971 34.4644 22.4971H40.1626C40.3677 22.4971 40.5605 22.5386 40.7412 22.6216C40.9268 22.6997 41.0879 22.8071 41.2246 22.9438C41.3613 23.0757 41.4688 23.2344 41.5469 23.4199C41.625 23.6006 41.6641 23.7935 41.6641 23.9985V25.3535H40.1626V23.9985H34.4644V31.4985H40.1626V30.1509H41.6641V31.4985C41.6641 31.7036 41.625 31.8989 41.5469 32.0845C41.4688 32.2651 41.3613 32.4238 41.2246 32.5605C41.0879 32.6973 40.9268 32.8047 40.7412 32.8828C40.5605 32.9609 40.3677 33 40.1626 33H34.4644C34.2593 33 34.064 32.9609 33.8784 32.8828C33.6978 32.8047 33.5391 32.6973 33.4023 32.5605C33.2656 32.4238 33.1582 32.2651 33.0801 32.0845C33.002 31.8989 32.9629 31.7036 32.9629 31.4985V23.9985ZM45.5679 22.4971V27.0308L50.5776 22.4971H52.6943L47.0107 27.646L52.9214 33H50.8047L45.5679 28.2759V33H44.0664V22.4971H45.5679ZM54.291 22.4971H61.9448V23.9985H55.7925V27.0015H61.0439V28.5029H55.7925V31.4985H61.9448V33H54.291V22.4971ZM72.4917 26.2471C72.4917 27.7119 71.8667 28.5469 70.6167 28.752L72.5942 33H70.9316L68.9834 28.8032H65.6948V33H64.1934V22.4971H69.9429C71.6421 22.4971 72.4917 23.3491 72.4917 25.0532V26.2471ZM65.6948 27.3018H69.8623C70.2627 27.3018 70.5508 27.2139 70.7266 27.0381C70.9023 26.8623 70.9902 26.5742 70.9902 26.1738V25.1265C70.9902 24.7261 70.9023 24.438 70.7266 24.2622C70.5508 24.0864 70.2627 23.9985 69.8623 23.9985H65.6948V27.3018Z" fill="white"/>
<path d="M4.24609 3.99756C4.24609 3.65576 4.3112 3.33431 4.44141 3.0332C4.57161 2.72396 4.75065 2.45947 4.97852 2.23975C5.20638 2.01188 5.47087 1.83285 5.77197 1.70264C6.08122 1.56429 6.40674 1.49512 6.74854 1.49512H16.2456C16.5874 1.49512 16.9089 1.56429 17.21 1.70264C17.5192 1.83285 17.7878 2.01188 18.0156 2.23975C18.2435 2.45947 18.4225 2.72396 18.5527 3.0332C18.6829 3.33431 18.748 3.65576 18.748 3.99756V6.25586H16.2456V3.99756H6.74854V16.4976H16.2456V14.2515H18.748V16.4976C18.748 16.8394 18.6829 17.1649 18.5527 17.4741C18.4225 17.7752 18.2435 18.0397 18.0156 18.2676C17.7878 18.4954 17.5192 18.6745 17.21 18.8047C16.9089 18.9349 16.5874 19 16.2456 19H6.74854C6.40674 19 6.08122 18.9349 5.77197 18.8047C5.47087 18.6745 5.20638 18.4954 4.97852 18.2676C4.75065 18.0397 4.57161 17.7752 4.44141 17.4741C4.3112 17.1649 4.24609 16.8394 4.24609 16.4976V3.99756ZM33.7505 16.5952C33.7505 16.9289 33.6854 17.2422 33.5552 17.5352C33.4331 17.8281 33.2622 18.0845 33.0425 18.3042C32.8309 18.5158 32.5786 18.6867 32.2856 18.8169C32.0008 18.939 31.6916 19 31.3579 19H24.9004C24.5749 19 24.2656 18.939 23.9727 18.8169C23.6797 18.6867 23.4233 18.5158 23.2036 18.3042C22.992 18.0845 22.8211 17.8281 22.6909 17.5352C22.5688 17.2422 22.5078 16.9289 22.5078 16.5952V8.4043C22.5078 8.07064 22.5688 7.75732 22.6909 7.46436C22.8211 7.17139 22.992 6.91911 23.2036 6.70752C23.4233 6.48779 23.6797 6.31689 23.9727 6.19482C24.2656 6.06462 24.5749 5.99951 24.9004 5.99951H31.3579C31.6916 5.99951 32.0008 6.06462 32.2856 6.19482C32.5786 6.31689 32.8309 6.48779 33.0425 6.70752C33.2622 6.91911 33.4331 7.17139 33.5552 7.46436C33.6854 7.75732 33.7505 8.07064 33.7505 8.4043V16.5952ZM24.9004 8.4043V16.5952H31.3579V8.4043H24.9004ZM41.4653 19L36.2651 5.99951H38.7676L42.7104 16.1191L46.6655 5.99951H49.168L43.9678 19H41.4653ZM54.2095 5.99951V19H51.8047V5.99951H54.2095ZM51.6826 0.994629H54.3315V3.49707H51.6826V0.994629ZM58.3477 8.4043C58.3477 8.07064 58.4087 7.75732 58.5308 7.46436C58.661 7.17139 58.8319 6.91911 59.0435 6.70752C59.2632 6.48779 59.5195 6.31689 59.8125 6.19482C60.1055 6.06462 60.4147 5.99951 60.7402 5.99951H67.4419V0.994629H69.8467V19H67.4419V16.8027C67.4175 17.1038 67.3361 17.3887 67.1978 17.6572C67.0594 17.9258 66.8804 18.1618 66.6606 18.3652C66.4491 18.5605 66.2049 18.7152 65.9282 18.8291C65.6515 18.943 65.3586 19 65.0493 19H60.7402C60.4147 19 60.1055 18.939 59.8125 18.8169C59.5195 18.6867 59.2632 18.5158 59.0435 18.3042C58.8319 18.0845 58.661 17.8281 58.5308 17.5352C58.4087 17.2422 58.3477 16.9289 58.3477 16.5952V8.4043ZM60.7402 16.5952H67.4419V8.4043H60.7402V16.5952Z" fill="white"/>
</svg>
